# xmcd
# 
# Track frame offsets:
#     150
#     19822
#     35038
#     59852
# 
# Disc length: 1029
# 
# Revision: 0
# Processed by: cddbd v1.5.2PL0 Copyright (c) Steve Scherf et al.
# Submitted via: BonkEnc v1.0.8
# 
DISCID=37040304
DTITLE=N.K.T.Kid - ⑨性！グルーブ中毒 -プレビュー版-
DYEAR=2009
DGENRE=Other
TTITLE0=春の湊に
TTITLE1=千年幻想郷
TTITLE2=ラストリモート
TTITLE3=信仰は儚き人間の為に
EXTD=
EXTT0=
EXTT1=
EXTT2=
EXTT3=
PLAYORDER=
